#N canvas 154 227 595 503 10;
#X obj 122 15 noise~;
#X obj 115 496 dac~;
#X obj 124 353 *~ 0.5;
#X obj 193 429 - 1;
#X obj 90 460 *~ 0.5;
#X obj 144 459 *~ 0.5;
#X obj 167 398 r pan;
#X obj 268 421 s pan;
#X obj 271 401 hsl 128 15 0 1 0 0 empty empty empty -2 -8 0 10 -262144
-1 -1 0 1;
#X obj 312 224 vsl 15 128 0 1 0 0 empty empty empty 0 -9 0 10 -262144
-1 -1 0 1;
#X obj 122 130 bp~ 100 1;
#X obj 153 94 + 130;
#X obj 192 327 + 0.1;
#X obj 193 299 * 0.2;
#X obj 154 68 * 270;
#X obj 156 44 r velocitat;
#X obj 312 362 s distancia;
#X obj 192 268 r distancia;
#X obj 309 44 vsl 15 128 0 1 0 0 empty empty empty 0 -9 0 10 -262144
-1 -1 0 1;
#X obj 309 182 s velocitat;
#X obj 473 74 loadbang;
#X msg 418 119 0;
#X obj 418 191 s velocitat;
#X msg 448 123 1;
#X obj 448 166 s distancia;
#X msg 498 112 0.5;
#X obj 498 136 s pan;
#X msg 390 120 1;
#X obj 390 235 s activitat;
#X obj 172 166 r activitat;
#X obj 121 211 *~ 1;
#X connect 0 0 10 0;
#X connect 2 0 4 0;
#X connect 2 0 5 0;
#X connect 3 0 5 1;
#X connect 4 0 1 0;
#X connect 5 0 1 1;
#X connect 6 0 3 0;
#X connect 6 0 4 1;
#X connect 8 0 7 0;
#X connect 9 0 16 0;
#X connect 10 0 30 0;
#X connect 11 0 10 1;
#X connect 12 0 2 1;
#X connect 13 0 12 0;
#X connect 14 0 11 0;
#X connect 15 0 14 0;
#X connect 17 0 13 0;
#X connect 18 0 19 0;
#X connect 20 0 21 0;
#X connect 20 0 23 0;
#X connect 20 0 25 0;
#X connect 20 0 27 0;
#X connect 21 0 22 0;
#X connect 23 0 24 0;
#X connect 25 0 26 0;
#X connect 27 0 28 0;
#X connect 29 0 30 1;
#X connect 30 0 2 0;
